<svg width="180" height="114" viewBox="0 0 180 114" fill="none" xmlns="http://www.w3.org/2000/svg">
<path d="M70.4558 55.0547H62.9022C59.5995 55.0547 59.0209 55.8527 57.7111 57.237L47.7388 68.3113L47.6504 68.8813L55.0995 82.146C56.1602 83.9944 57.4379 85.452 60.8611 85.452H67.0084C67.0084 85.452 57.8879 69.1663 57.5986 68.6777C58.0566 68.2054 70.4558 55.0547 70.4558 55.0547Z" fill="#0E3192"/>
<path d="M47.651 68.4223L47.7394 68.3245L51.8456 42.0312H47.5385C43.3037 42.0312 42.6046 43.8878 42.3474 45.9317L36.168 85.4652H40.8849C42.9662 85.4652 45.1439 84.5614 45.634 81.744L47.643 68.8946L47.5867 68.7887L47.651 68.4223Z" fill="#0E3192"/>
<path d="M47.6755 68.3867L47.6191 68.7528L47.6755 68.8585L47.764 68.2891L47.6755 68.3867Z" fill="#0E3192"/>
<path d="M89.7251 54.75C88.1421 54.7826 86.6876 55.1002 85.3939 55.7027C84.518 56.061 83.3367 56.8102 82.5492 57.6245L82.951 55.0594H74.4171L69.668 85.4649H74.3849C76.4662 85.4649 78.6439 84.561 79.134 81.7436L81.0706 69.3502C81.4162 67.1353 82.1876 65.3276 83.3608 63.9759C84.7751 62.3229 86.4948 61.5819 88.4876 61.5819H98.7412L99.8099 54.7582H89.7251V54.75Z" fill="#0E3192"/>
<path d="M91.221 80.6956C91.6871 80.6956 92.0889 80.8015 92.3541 80.9236L92.571 80.1664C92.3621 80.0606 91.8719 79.9141 91.1809 79.9141C89.4452 79.9141 88.2559 81.0131 88.2559 82.5844C88.2559 84.1068 89.3246 85.1327 91.0523 85.1327C91.7514 85.1327 92.2898 84.9942 92.5309 84.8721L92.3621 84.1313C92.0809 84.2615 91.6309 84.3429 91.205 84.3429C89.9434 84.3429 89.2603 83.5695 89.2603 82.5356C89.2603 81.3876 90.0478 80.6956 91.221 80.6956Z" fill="#0E3192"/>
<path d="M94.2681 79.6953H93.3184V85.0523H94.2681V79.6953Z" fill="#0E3192"/>
<path d="M96.9667 81.3203C95.681 81.3203 95.0703 82.338 95.0703 83.2824C95.0703 84.3977 95.8176 85.1386 97.0632 85.1386C97.6498 85.1386 98.0998 85.0328 98.4373 84.8944L98.2926 84.243C97.9792 84.357 97.6578 84.4303 97.1837 84.4303C96.5489 84.4303 96.0025 84.1209 95.9703 83.5103H98.6141C98.6301 83.4289 98.6462 83.2905 98.6462 83.1277C98.6542 82.3868 98.2766 81.3203 96.9667 81.3203ZM95.9703 82.8265C96.0185 82.4764 96.2757 81.9553 96.9105 81.9553C97.6257 81.9553 97.7542 82.5741 97.7542 82.8265H95.9703Z" fill="#0E3192"/>
<path d="M102.422 82.8997C102.422 82.0856 102.061 81.3203 100.831 81.3203C100.221 81.3203 99.7305 81.4831 99.4251 81.6623L99.618 82.281C99.8832 82.11 100.301 81.9879 100.687 81.9879C101.402 81.9879 101.482 82.4275 101.482 82.6148V82.6637C99.9876 82.6555 99.168 83.144 99.168 84.0558C99.168 84.585 99.5778 85.1386 100.381 85.1386C100.896 85.1386 101.314 84.9269 101.539 84.6338H101.563L101.627 85.0491H102.487C102.447 84.8211 102.422 84.4954 102.422 84.1535V82.8997ZM101.506 83.7302C101.506 83.7872 101.498 83.8686 101.474 83.9255C101.378 84.1942 101.097 84.4547 100.679 84.4547C100.349 84.4547 100.116 84.2919 100.116 83.95C100.116 83.4208 100.751 83.2661 101.498 83.2742V83.7302H101.506Z" fill="#0E3192"/>
<path d="M105.573 81.3203C104.906 81.3203 104.48 81.7193 104.328 81.9961H104.304L104.255 81.4099H103.428C103.444 81.7274 103.46 82.0856 103.46 82.509V85.0572H104.408V82.9486C104.408 82.8509 104.424 82.745 104.448 82.6718C104.553 82.395 104.826 82.0937 105.244 82.0937C105.79 82.0937 106.023 82.5089 106.023 83.0788V85.0572H106.971V82.9649C106.971 81.7193 106.216 81.3203 105.573 81.3203Z" fill="#0E3192"/>
<path d="M113.712 82.1686H112.852C112.748 82.7629 112.563 83.2106 112.338 83.5281C112.065 83.2513 111.671 82.828 111.277 82.4046V82.3802C112.025 82.0383 112.37 81.6149 112.37 81.0695C112.37 80.3775 111.8 79.9297 111.052 79.9297C110.064 79.9297 109.574 80.6217 109.574 81.2486C109.574 81.5987 109.75 81.965 109.983 82.2255V82.25C109.389 82.5431 108.963 83.0234 108.963 83.7317C108.963 84.4481 109.533 85.1564 110.715 85.1564C111.341 85.1564 111.824 84.9773 112.233 84.6435C112.394 84.8063 112.523 84.9366 112.659 85.075H113.792C113.487 84.7738 113.206 84.4644 112.876 84.1143C113.302 83.6014 113.551 82.9827 113.712 82.1686ZM111.004 80.524C111.374 80.524 111.558 80.8171 111.558 81.0857C111.558 81.444 111.285 81.6556 110.835 81.9243C110.602 81.6719 110.45 81.4196 110.45 81.1265C110.441 80.8252 110.642 80.524 111.004 80.524ZM110.859 84.44C110.265 84.44 109.871 84.0573 109.871 83.5444C109.871 83.1129 110.176 82.8606 110.425 82.7059C110.956 83.2839 111.47 83.8212 111.759 84.0899C111.558 84.2771 111.237 84.44 110.859 84.44Z" fill="#0E3192"/>
<path d="M118.22 83.0136H119.209V84.2185C119.072 84.2918 118.775 84.3407 118.381 84.3407C117.176 84.3407 116.42 83.5998 116.42 82.517C116.42 81.4342 117.224 80.7422 118.421 80.7422C119.04 80.7422 119.426 80.848 119.739 80.9946L119.956 80.2374C119.699 80.1072 119.152 79.9688 118.453 79.9688C116.581 79.9688 115.424 81.0923 115.424 82.5903C115.424 83.3067 115.689 83.9499 116.147 84.3895C116.661 84.878 117.377 85.1141 118.325 85.1141C119.096 85.1141 119.779 84.9268 120.141 84.8047V82.2728H118.22V83.0136Z" fill="#0E3192"/>
<path d="M121.981 82.1587H121.957L121.925 81.4097H121.105C121.13 81.7435 121.138 82.0936 121.138 82.6309L121.13 85.057H122.078V83.1764C122.078 83.095 122.086 83.0054 122.102 82.924C122.182 82.5006 122.496 82.2076 122.978 82.2076C123.098 82.2076 123.187 82.2238 123.283 82.2401V81.3527C123.203 81.3364 123.147 81.3283 123.05 81.3283C122.632 81.3202 122.174 81.597 121.981 82.1587Z" fill="#0E3192"/>
<path d="M125.557 81.3203C124.271 81.3203 123.66 82.338 123.66 83.2824C123.66 84.3977 124.407 85.1386 125.653 85.1386C126.24 85.1386 126.69 85.0328 127.027 84.8944L126.882 84.243C126.569 84.357 126.248 84.4303 125.774 84.4303C125.139 84.4303 124.592 84.1209 124.56 83.5103H127.204C127.22 83.4289 127.236 83.2905 127.236 83.1277C127.236 82.3868 126.858 81.3203 125.557 81.3203ZM124.56 82.8265C124.608 82.4764 124.866 81.9553 125.5 81.9553C126.224 81.9553 126.352 82.5741 126.344 82.8265H124.56Z" fill="#0E3192"/>
<path d="M129.664 81.3203C128.378 81.3203 127.768 82.338 127.768 83.2824C127.768 84.3977 128.515 85.1386 129.76 85.1386C130.347 85.1386 130.797 85.0328 131.135 84.8944L130.99 84.243C130.676 84.357 130.355 84.4303 129.881 84.4303C129.246 84.4303 128.7 84.1209 128.668 83.5103H131.311C131.327 83.4289 131.343 83.2905 131.343 83.1277C131.351 82.3868 130.966 81.3203 129.664 81.3203ZM128.668 82.8265C128.716 82.4764 128.973 81.9553 129.608 81.9553C130.323 81.9553 130.46 82.5741 130.452 82.8265H128.668Z" fill="#0E3192"/>
<path d="M134.243 81.3203C133.576 81.3203 133.15 81.7193 132.998 81.9961H132.974L132.925 81.4099H132.098C132.114 81.7274 132.122 82.0856 132.122 82.509V85.0572H133.07V82.9486C133.07 82.8509 133.086 82.745 133.11 82.6718C133.215 82.395 133.488 82.0937 133.906 82.0937C134.452 82.0937 134.677 82.5089 134.677 83.0788V85.0572H135.641V82.9649C135.641 81.7193 134.878 81.3203 134.243 81.3203Z" fill="#0E3192"/>
<path d="M78.1955 40.7409C82.2053 33.0784 111.431 34.2266 118.39 34.5116L119.306 28.665C111.094 28.266 74.5553 27.5413 78.1955 40.7409C78.1875 40.7327 78.1875 40.7327 78.1955 40.7409Z" fill="#0E3192"/>
<path d="M103.435 46.6295C101.885 46.6458 80.9354 46.6783 78.1872 40.7422V40.7503C78.1872 40.7422 78.1872 40.7422 78.1872 40.7422C73.7756 49.5202 94.6283 52.2888 101.298 52.476C101.941 52.4923 102.479 52.5168 102.825 52.5005L104.03 52.476L104.946 46.6213L103.435 46.6295Z" fill="#0E3192"/>
<path d="M143.734 49.0999C143.734 49.0917 143.734 49.0917 143.734 49.0999C139.724 56.746 110.474 56.0213 103.523 55.7363L102.615 61.591C110.812 61.9819 147.366 62.2994 143.734 49.0999Z" fill="#FF410B"/>
<path d="M118.478 43.6304C120.029 43.6223 140.978 43.1581 143.726 49.1024C143.726 49.0943 143.726 49.0943 143.726 49.0943V49.1024C148.138 40.3244 127.293 37.9874 120.607 37.792C119.965 37.7757 119.217 37.7513 118.84 37.7594L117.859 37.792L116.951 43.6467L118.478 43.6304Z" fill="#FF410B"/>
</svg>
