<svg width="140" height="140" viewBox="0 0 140 140" fill="none" xmlns="http://www.w3.org/2000/svg">
<path fill-rule="evenodd" clip-rule="evenodd" d="M86 111.5C86 107.358 89.3579 104 93.5 104C97.6421 104 101 107.358 101 111.5V111.674C101.909 111.242 102.926 111 104 111C107.526 111 110.444 113.608 110.929 117H112C113.657 117 115 118.343 115 120C115 121.657 113.657 123 112 123H111H106H101H97H86V111.5Z" fill="#3663F6"/>
<path fill-rule="evenodd" clip-rule="evenodd" d="M86 111.5C86 107.358 89.3579 104 93.5 104C97.6421 104 101 107.358 101 111.5V111.674C101.909 111.242 102.926 111 104 111C107.526 111 110.444 113.608 110.929 117H112C113.657 117 115 118.343 115 120C115 121.657 113.657 123 112 123H111H106H101H97H86V111.5Z" fill="white" fill-opacity="0.7"/>
<path d="M33 69H87V117H33V69Z" fill="#3663F6"/>
<path d="M33 69H87V117H33V69Z" fill="white" fill-opacity="0.25"/>
<path d="M57 91C57 89.3431 58.3431 88 60 88C61.6569 88 63 89.3431 63 91V117H57V91Z" fill="#3663F6"/>
<path d="M57 91C57 89.3431 58.3431 88 60 88C61.6569 88 63 89.3431 63 91V117H57V91Z" fill="white" fill-opacity="0.5"/>
<path d="M45 91C45 89.3431 46.3431 88 48 88C49.6569 88 51 89.3431 51 91V117H45V91Z" fill="#3663F6"/>
<path d="M45 91C45 89.3431 46.3431 88 48 88C49.6569 88 51 89.3431 51 91V117H45V91Z" fill="white" fill-opacity="0.5"/>
<path d="M69 91C69 89.3431 70.3431 88 72 88C73.6569 88 75 89.3431 75 91V117H69V91Z" fill="#3663F6"/>
<path d="M69 91C69 89.3431 70.3431 88 72 88C73.6569 88 75 89.3431 75 91V117H69V91Z" fill="white" fill-opacity="0.5"/>
<path d="M33 117H87V121C87 122.105 86.1046 123 85 123H35C33.8954 123 33 122.105 33 121V117Z" fill="#3663F6"/>
<path d="M29 62C29 60.8954 29.8954 60 31 60H89C90.1046 60 91 60.8954 91 62V67C91 68.1046 90.1046 69 89 69H31C29.8954 69 29 68.1046 29 67V62Z" fill="#3663F6"/>
<path d="M29 62C29 60.8954 29.8954 60 31 60H89C90.1046 60 91 60.8954 91 62V67C91 68.1046 90.1046 69 89 69H31C29.8954 69 29 68.1046 29 67V62Z" fill="white" fill-opacity="0.25"/>
<path d="M69.3588 20.6081C70.0926 19.7825 71.3568 19.7082 72.1823 20.442L115.532 58.975C116.358 59.7088 116.432 60.9729 115.698 61.7985L114.37 63.2933C113.636 64.1189 112.372 64.1933 111.546 63.4594L68.1962 24.9265C67.3706 24.1926 67.2962 22.9285 68.0301 22.1029L69.3588 20.6081Z" fill="#3663F6"/>
<path d="M69.3588 20.6081C70.0926 19.7825 71.3568 19.7082 72.1823 20.442L115.532 58.975C116.358 59.7088 116.432 60.9729 115.698 61.7985L114.37 63.2933C113.636 64.1189 112.372 64.1933 111.546 63.4594L68.1962 24.9265C67.3706 24.1926 67.2962 22.9285 68.0301 22.1029L69.3588 20.6081Z" fill="white" fill-opacity="0.25"/>
<path d="M87.7142 31.569C88.4481 30.7435 89.7122 30.6691 90.5378 31.4029L102.496 42.0327C103.322 42.7666 103.396 44.0307 102.662 44.8563L101.334 46.3511L86.3855 33.0639L87.7142 31.569Z" fill="#3663F6"/>
<path d="M33 69H87V73H33V69Z" fill="#3663F6"/>
<path fill-rule="evenodd" clip-rule="evenodd" d="M29.0778 43.9722C29.85 43.1824 31.1163 43.1681 31.9061 43.9403L39.0566 50.931C39.8464 51.7032 39.8607 52.9695 39.0885 53.7593C38.3163 54.5491 37.0501 54.5634 36.2603 53.7912L29.1098 46.8005C28.32 46.0283 28.3057 44.7621 29.0778 43.9722Z" fill="#3663F6"/>
<path fill-rule="evenodd" clip-rule="evenodd" d="M29.0778 43.9722C29.85 43.1824 31.1163 43.1681 31.9061 43.9403L39.0566 50.931C39.8464 51.7032 39.8607 52.9695 39.0885 53.7593C38.3163 54.5491 37.0501 54.5634 36.2603 53.7912L29.1098 46.8005C28.32 46.0283 28.3057 44.7621 29.0778 43.9722Z" fill="white"/>
<path fill-rule="evenodd" clip-rule="evenodd" d="M60.8555 35.07C61.9256 35.3438 62.5711 36.4333 62.2973 37.5034L59.8184 47.1912C59.5446 48.2613 58.4552 48.9068 57.3851 48.633C56.315 48.3592 55.6695 47.2698 55.9433 46.1997L58.4222 36.5118C58.696 35.4417 59.7855 34.7962 60.8555 35.07Z" fill="#3663F6"/>
<path fill-rule="evenodd" clip-rule="evenodd" d="M60.8555 35.07C61.9256 35.3438 62.5711 36.4333 62.2973 37.5034L59.8184 47.1912C59.5446 48.2613 58.4552 48.9068 57.3851 48.633C56.315 48.3592 55.6695 47.2698 55.9433 46.1997L58.4222 36.5118C58.696 35.4417 59.7855 34.7962 60.8555 35.07Z" fill="white"/>
<path fill-rule="evenodd" clip-rule="evenodd" d="M42.5587 30.9137C43.6223 30.6158 44.7261 31.2365 45.024 32.3002L49.3394 47.7072C49.6373 48.7708 49.0166 49.8746 47.953 50.1725C46.8893 50.4704 45.7856 49.8497 45.4876 48.7861L41.1722 33.379C40.8743 32.3154 41.4951 31.2116 42.5587 30.9137Z" fill="#3663F6"/>
<path fill-rule="evenodd" clip-rule="evenodd" d="M42.5587 30.9137C43.6223 30.6158 44.7261 31.2365 45.024 32.3002L49.3394 47.7072C49.6373 48.7708 49.0166 49.8746 47.953 50.1725C46.8893 50.4704 45.7856 49.8497 45.4876 48.7861L41.1722 33.379C40.8743 32.3154 41.4951 31.2116 42.5587 30.9137Z" fill="white"/>
</svg>
