<svg width="20" height="20" viewBox="0 0 20 20" fill="none" xmlns="http://www.w3.org/2000/svg">
<path fill-rule="evenodd" clip-rule="evenodd" d="M2.5 4.95703C2.5 4.05957 3.22754 3.33203 4.125 3.33203H15.8757C16.7731 3.33203 17.5007 4.05957 17.5007 4.95703V5.97278C17.5007 6.55397 17.1956 7.0639 16.7368 7.35112V14.0416C16.7368 15.4913 15.5615 16.6666 14.1118 16.6666H5.88896C4.43921 16.6666 3.26396 15.4913 3.26396 14.0416V7.35116C2.80514 7.06394 2.5 6.554 2.5 5.97278V4.95703ZM4.51396 7.59778H15.4868V14.0416C15.4868 14.801 14.8712 15.4166 14.1118 15.4166H5.88896C5.12957 15.4166 4.51396 14.801 4.51396 14.0416V7.59778ZM4.125 4.58203C3.91789 4.58203 3.75 4.74992 3.75 4.95703V5.97278C3.75 6.17989 3.91789 6.34778 4.125 6.34778H15.8757C16.0828 6.34778 16.2507 6.17989 16.2507 5.97278V4.95703C16.2507 4.74992 16.0828 4.58203 15.8757 4.58203H4.125ZM10.167 10.7153C9.82183 10.7153 9.542 10.9951 9.542 11.3403C9.542 11.6854 9.82183 11.9653 10.167 11.9653H13.8338C14.179 11.9653 14.4588 11.6854 14.4588 11.3403C14.4588 10.9951 14.179 10.7153 13.8338 10.7153L10.167 10.7153Z" fill="#202124"/>
</svg>
