<svg width="24" height="24" viewBox="0 0 24 24" fill="none" xmlns="http://www.w3.org/2000/svg">
<g clip-path="url(#clip0_416_95137)">
<path d="M14.5225 13.5233C14.0205 13.5233 13.6134 13.1163 13.6134 12.6142C13.6134 12.1121 14.0205 11.7051 14.5225 11.7051C15.0246 11.7051 15.4316 12.1121 15.4316 12.6142C15.4316 13.1163 15.0246 13.5233 14.5225 13.5233Z" fill="#202124"/>
<path d="M10.8861 13.5233C10.384 13.5233 9.97701 13.1163 9.97701 12.6142C9.97701 12.1121 10.384 11.7051 10.8861 11.7051C11.3882 11.7051 11.7952 12.1121 11.7952 12.6142C11.7952 13.1163 11.3882 13.5233 10.8861 13.5233Z" fill="#202124"/>
<path d="M6.34059 12.6142C6.34059 13.1163 6.74761 13.5233 7.2497 13.5233C7.75178 13.5233 8.1588 13.1163 8.1588 12.6142C8.1588 12.1121 7.75178 11.7051 7.2497 11.7051C6.74761 11.7051 6.34059 12.1121 6.34059 12.6142Z" fill="#202124"/>
<path fill-rule="evenodd" clip-rule="evenodd" d="M10.9186 3.94552C10.8848 3.5327 10.5226 3.22551 10.1098 3.25939C5.28914 3.65508 1.50078 7.6918 1.50078 12.6141C1.50078 14.6706 2.16299 16.5746 3.28564 18.1217C3.39265 18.2691 3.50438 18.414 3.61966 18.5549L3.64448 18.5851C3.65141 18.5935 3.65834 18.6019 3.66529 18.6102L2.01291 19.8258C1.07589 20.5151 1.56343 22.0006 2.72668 22.0006H10.8873C15.7381 22.0006 19.7286 18.3216 20.2224 13.6012C20.2655 13.1893 19.9665 12.8204 19.5545 12.7773C19.1426 12.7342 18.7737 13.0332 18.7306 13.4452C18.3158 17.4098 14.962 20.5006 10.8873 20.5006H3.62691L5.18216 19.3565C5.57556 19.0671 5.61537 18.4993 5.2766 18.1564C5.19863 18.0775 5.12232 17.9969 5.04771 17.9148C4.96348 17.8221 4.88142 17.7273 4.80164 17.6306L4.78051 17.6049C4.68365 17.4866 4.58966 17.3647 4.49963 17.2406C3.55664 15.9411 3.00078 14.3436 3.00078 12.6141C3.00078 8.47909 6.18364 5.0867 10.2325 4.75436C10.6453 4.72048 10.9525 4.35835 10.9186 3.94552Z" fill="#202124"/>
<path fill-rule="evenodd" clip-rule="evenodd" d="M16.4561 9.1619C18.2268 9.1619 19.6622 7.72651 19.6622 5.95595C19.6622 4.18539 18.2268 2.75 16.4561 2.75C14.6854 2.75 13.25 4.18539 13.25 5.95595C13.25 7.72651 14.6854 9.1619 16.4561 9.1619ZM16.4561 10.6619C19.0552 10.6619 21.1622 8.55497 21.1622 5.95595C21.1622 3.35692 19.0552 1.25 16.4561 1.25C13.857 1.25 11.75 3.35692 11.75 5.95595C11.75 8.55497 13.857 10.6619 16.4561 10.6619Z" fill="#202124"/>
<path fill-rule="evenodd" clip-rule="evenodd" d="M18.8661 8.36714C19.159 8.07424 19.6339 8.07423 19.9268 8.36712L22.2798 10.7201C22.5727 11.013 22.5727 11.4879 22.2799 11.7808C21.987 12.0737 21.5121 12.0737 21.2192 11.7808L18.8662 9.4278C18.5733 9.13491 18.5733 8.66004 18.8661 8.36714Z" fill="#202124"/>
</g>
<defs>
<clipPath id="clip0_416_95137">
<rect width="24" height="24" fill="white"/>
</clipPath>
</defs>
</svg>
