<svg width="26" height="26" viewBox="0 0 26 26" fill="none" xmlns="http://www.w3.org/2000/svg">
<path fill-rule="evenodd" clip-rule="evenodd" d="M11.5 2.5C6.25329 2.5 2 6.75329 2 12C2 17.2467 6.2533 21.5 11.5 21.5H12.5C12.6774 21.5 12.8536 21.4951 13.0285 21.4855L13 21.4999H21.4273C21.8666 21.4999 22.0924 20.9741 21.7899 20.6556L19.5826 18.3316C21.0859 16.6511 22 14.4323 22 12C22 6.75329 17.7467 2.5 12.5 2.5H11.5ZM14.2961 10.055L17.5698 12.1551C17.8101 12.3092 17.8101 12.6908 17.5698 12.8449L14.2961 14.945C14.054 15.1003 13.75 14.9083 13.75 14.6001V13.25H7.75C7.33579 13.25 7 12.9142 7 12.5C7 12.0858 7.33621 11.75 7.75043 11.75H13.75V10.3999C13.75 10.0917 14.054 9.89971 14.2961 10.055ZM15.3295 12.5L15.25 12.551V12.449L15.3295 12.5Z" fill="white"/>
</svg>
