<svg width="24" height="24" viewBox="0 0 24 24" fill="none" xmlns="http://www.w3.org/2000/svg">
<path fill-rule="evenodd" clip-rule="evenodd" d="M5.96353 5.19998C6.06853 5.09845 6.21661 5.03675 6.37653 5.03675H10.9999V18.8017C10.9999 18.8196 11.0007 18.8374 11.0023 18.855H8.52904C8.07717 18.855 7.71086 19.2213 7.71086 19.6732C7.71086 20.125 8.07717 20.4913 8.52904 20.4913H15.4712C15.9231 20.4913 16.2894 20.125 16.2894 19.6732C16.2894 19.2213 15.9231 18.855 15.4712 18.855H12.6339C12.6355 18.8374 12.6363 18.8196 12.6363 18.8017V5.03675H17.6194C17.7793 5.03675 17.9274 5.09845 18.0324 5.19998C18.1365 5.30062 18.1896 5.43115 18.1896 5.56123V7.57522C18.1896 8.02709 18.5559 8.3934 19.0078 8.3934C19.4597 8.3934 19.826 8.02709 19.826 7.57522V5.56123C19.826 4.97912 19.5866 4.42663 19.1699 4.02367C18.7542 3.62161 18.1959 3.40039 17.6194 3.40039H11.8181H6.37653C5.79999 3.40039 5.24176 3.62161 4.826 4.02367C4.4093 4.42663 4.16992 4.97912 4.16992 5.56123V7.57522C4.16992 8.02709 4.53623 8.3934 4.9881 8.3934C5.43997 8.3934 5.80629 8.02709 5.80629 7.57522V5.56123C5.80629 5.43115 5.85947 5.30062 5.96353 5.19998Z" />
</svg>
