<svg width="140" height="140" viewBox="0 0 140 140" fill="none" xmlns="http://www.w3.org/2000/svg">
<path d="M94 40H32V100H94V40Z" fill="#E8EAED"/>
<path d="M32 40C32 32.268 38.268 26 46 26H108V40H32Z" fill="#E8EAED"/>
<path d="M15 100C15 107.732 21.268 114 29 114L81 114V100L15 100Z" fill="#80868B"/>
<path d="M94 40L122 40Lnan nanL122 40C122 32.268 115.732 26 108 26Lnan nanL108 26C100.268 26 94 32.268 94 40Lnan nanL94 40Z" fill="#80868B"/>
<path d="M94 100L66 100C66 107.732 72.268 114 80 114C87.732 114 94 107.732 94 100Z" fill="#E8EAED"/>
<path d="M99 103C110.598 103 120 93.598 120 82C120 70.402 110.598 61 99 61C87.402 61 78 70.402 78 82C78 93.598 87.402 103 99 103Z" fill="white"/>
<path fill-rule="evenodd" clip-rule="evenodd" d="M99 63.5C88.7827 63.5 80.5 71.7827 80.5 82C80.5 92.2173 88.7827 100.5 99 100.5C109.217 100.5 117.5 92.2173 117.5 82C117.5 71.7827 109.217 63.5 99 63.5ZM75.5 82C75.5 69.0213 86.0213 58.5 99 58.5C111.979 58.5 122.5 69.0213 122.5 82C122.5 94.9787 111.979 105.5 99 105.5C86.0213 105.5 75.5 94.9787 75.5 82Z" fill="#5F6368"/>
<path fill-rule="evenodd" clip-rule="evenodd" d="M110.232 97.2322C111.209 96.2559 112.791 96.2559 113.768 97.2322L122.768 106.232C123.744 107.209 123.744 108.791 122.768 109.768C121.791 110.744 120.209 110.744 119.232 109.768L110.232 100.768C109.256 99.7915 109.256 98.2085 110.232 97.2322Z" fill="#5F6368"/>
<path fill-rule="evenodd" clip-rule="evenodd" d="M91.5858 74.5858C92.3668 73.8047 93.6332 73.8047 94.4142 74.5858L106.414 86.5858C107.195 87.3668 107.195 88.6332 106.414 89.4142C105.633 90.1953 104.367 90.1953 103.586 89.4142L91.5858 77.4142C90.8047 76.6332 90.8047 75.3668 91.5858 74.5858Z" fill="#5F6368"/>
<path fill-rule="evenodd" clip-rule="evenodd" d="M106.414 74.5858C107.195 75.3668 107.195 76.6332 106.414 77.4142L94.4142 89.4142C93.6332 90.1953 92.3668 90.1953 91.5858 89.4142C90.8047 88.6332 90.8047 87.3668 91.5858 86.5858L103.586 74.5858C104.367 73.8047 105.633 73.8047 106.414 74.5858Z" fill="#5F6368"/>
<path d="M40 44C40 42.8954 40.8954 42 42 42H84C85.1046 42 86 42.8954 86 44V51C86 52.1046 85.1046 53 84 53H42C40.8954 53 40 52.1046 40 51V44Z" fill="#BDC1C6"/>
<path fill-rule="evenodd" clip-rule="evenodd" d="M40 63C40 61.8954 40.8954 61 42 61H66C67.1046 61 68 61.8954 68 63C68 64.1046 67.1046 65 66 65H42C40.8954 65 40 64.1046 40 63Z" fill="#C0C4C9"/>
<path fill-rule="evenodd" clip-rule="evenodd" d="M40 74C40 72.8954 40.8954 72 42 72H66C67.1046 72 68 72.8954 68 74C68 75.1046 67.1046 76 66 76H42C40.8954 76 40 75.1046 40 74Z" fill="#C0C4C9"/>
<path fill-rule="evenodd" clip-rule="evenodd" d="M40 85C40 83.8954 40.8954 83 42 83H66C67.1046 83 68 83.8954 68 85C68 86.1046 67.1046 87 66 87H42C40.8954 87 40 86.1046 40 85Z" fill="#C0C4C9"/>
</svg>
