<svg width="24" height="24" viewBox="0 0 24 24" fill="none" xmlns="http://www.w3.org/2000/svg">
<path d="M3 6C3 4.34315 4.34315 3 6 3H18C19.6569 3 21 4.34315 21 6V18C21 19.6569 19.6569 21 18 21H6C4.34315 21 3 19.6569 3 18V6Z" fill="#0386FF"/>
<ellipse cx="11.8792" cy="14.6745" rx="0.724138" ry="0.697674" fill="white"/>
<path fill-rule="evenodd" clip-rule="evenodd" d="M11.3966 7H12.6035V8.1626H15.2587V9.32539H8.7415V8.1626H11.3966V7ZM15.5 15.8373H9.7069V14.4419H8.5V15.8373V16.3024V17.0001H15.5V15.8373ZM13.8103 11.6512C13.8103 12.6787 12.9458 13.5117 11.8793 13.5117C10.8128 13.5117 9.94826 12.6787 9.94826 11.6512C9.94826 10.6237 10.8128 9.79077 11.8793 9.79077C12.9458 9.79077 13.8103 10.6237 13.8103 11.6512ZM12.8448 11.6512C12.8448 12.1649 12.4125 12.5814 11.8793 12.5814C11.346 12.5814 10.9137 12.1649 10.9137 11.6512C10.9137 11.1374 11.346 10.7209 11.8793 10.7209C12.4125 10.7209 12.8448 11.1374 12.8448 11.6512Z" fill="white"/>
</svg>
