<svg width="16" height="16" viewBox="0 0 16 16" fill="none" xmlns="http://www.w3.org/2000/svg">
<path fill-rule="evenodd" clip-rule="evenodd" d="M8.01858 3.66667C8.47881 3.66667 8.85191 3.29357 8.85191 2.83333C8.85191 2.3731 8.47881 2 8.01858 2C7.55834 2 7.18524 2.3731 7.18524 2.83333C7.18524 3.29357 7.55834 3.66667 8.01858 3.66667ZM1.50002 7.3457C1.96026 7.3457 2.33335 6.97261 2.33335 6.51237C2.33335 6.05213 1.96026 5.67904 1.50002 5.67904C1.03978 5.67904 0.666687 6.05213 0.666687 6.51237C0.666687 6.97261 1.03978 7.3457 1.50002 7.3457ZM15.3334 6.51237C15.3334 6.97261 14.9603 7.3457 14.5 7.3457C14.0398 7.3457 13.6667 6.97261 13.6667 6.51237C13.6667 6.05213 14.0398 5.67904 14.5 5.67904C14.9603 5.67904 15.3334 6.05213 15.3334 6.51237ZM8.45662 5.07317L10.2549 9.10486L13.0592 7.96149C13.4389 7.80669 13.8333 8.14956 13.7327 8.54708L12.6052 13.0053C12.5491 13.2273 12.3494 13.3827 12.1205 13.3827H3.87946C3.65054 13.3827 3.45085 13.2273 3.39472 13.0053L2.26723 8.54708C2.1667 8.14956 2.56105 7.80669 2.94074 7.96149L5.74508 9.10486L7.54335 5.07317C7.71958 4.67807 8.2804 4.67807 8.45662 5.07317Z" fill="#FB4516"/>
</svg>
