<svg width="20" height="20" viewBox="0 0 20 20" fill="none" xmlns="http://www.w3.org/2000/svg">
<path fill-rule="evenodd" clip-rule="evenodd" d="M13.7014 1.87517C12.5299 1.86492 11.4022 2.31845 10.5608 3.13674L9.2343 4.46471C8.99036 4.70893 8.99059 5.10466 9.23481 5.3486C9.47903 5.59253 9.87475 5.5923 10.1187 5.34809L11.4355 4.02981C12.0413 3.44214 12.8509 3.11778 13.6904 3.12512C14.5313 3.13248 15.3366 3.47211 15.9326 4.07225C16.5287 4.67253 16.8676 5.48546 16.8749 6.3362C16.8822 7.18521 16.5588 8.0024 15.9753 8.61267L13.6768 10.9273C13.3509 11.2556 12.9589 11.5092 12.5277 11.6712C12.0965 11.8332 11.6359 11.8998 11.1771 11.8667C10.7183 11.8337 10.2717 11.7016 9.86767 11.4793C9.4636 11.257 9.11137 10.9495 8.8351 10.5776C8.62927 10.3005 8.23778 10.2427 7.96069 10.4486C7.68359 10.6544 7.62582 11.0459 7.83164 11.323C8.21458 11.8385 8.70339 12.2654 9.26512 12.5745C9.82687 12.8835 10.4483 13.0674 11.0872 13.1135C11.7261 13.1596 12.3674 13.0667 12.9673 12.8414C13.5672 12.616 14.1117 12.2634 14.5639 11.808L16.8664 9.48948L16.8739 9.48165C17.6862 8.63465 18.135 7.50113 18.1249 6.32541C18.1147 5.14969 17.6464 4.02415 16.8195 3.19146C15.9925 2.35862 14.8728 1.88542 13.7014 1.87517ZM8.91283 6.88649C8.2739 6.84041 7.63269 6.93326 7.03273 7.15863C6.43283 7.38398 5.88833 7.73656 5.43616 8.19203L3.13368 10.5105L3.12616 10.5184C2.3138 11.3653 1.86502 12.4989 1.87517 13.6746C1.88531 14.8503 2.35359 15.9758 3.18049 16.8085C4.00754 17.6414 5.12724 18.1146 6.29868 18.1248C7.47013 18.1351 8.59793 17.6816 9.43927 16.8633L10.7594 15.534C11.0026 15.2891 11.0012 14.8933 10.7563 14.6501C10.5113 14.4069 10.1156 14.4083 9.87239 14.6532L8.56396 15.9708C7.95818 16.5581 7.14881 16.8822 6.30962 16.8749C5.4687 16.8675 4.66342 16.5279 4.06746 15.9278C3.47136 15.3275 3.13246 14.5145 3.12512 13.6638C3.1178 12.8148 3.44127 11.9976 4.0247 11.3874L6.32329 9.07266C6.64918 8.74437 7.04109 8.49077 7.4723 8.32879C7.9035 8.16681 8.36409 8.10016 8.82291 8.13325C9.28173 8.16634 9.72831 8.29842 10.1324 8.52073C10.5364 8.74304 10.8887 9.05046 11.1649 9.42239C11.3708 9.69948 11.7623 9.75726 12.0394 9.55143C12.3164 9.3456 12.3742 8.95411 12.1684 8.67702C11.7855 8.16149 11.2966 7.73459 10.7349 7.42554C10.1732 7.11648 9.55175 6.93257 8.91283 6.88649Z" fill="#3C4043"/>
</svg>
