<svg width="24" height="24" viewBox="0 0 24 24" fill="none" xmlns="http://www.w3.org/2000/svg">
<path fill-rule="evenodd" clip-rule="evenodd" d="M5.55634 4.34473C5.55634 3.24016 6.45177 2.34473 7.55634 2.34473H16.1278C17.2323 2.34473 18.1278 3.24016 18.1278 4.34473V12.6109C18.1278 13.1511 18.3463 13.6683 18.7336 14.0449L20.0095 15.2853C20.8442 16.0968 20.8121 17.4469 19.9399 18.2179L16.6183 21.1536C15.852 21.8309 14.6982 21.8209 13.9437 21.1305L11.5687 18.9574L9.59555 20.9305C8.8145 21.7116 7.54817 21.7116 6.76713 20.9305L3.97055 18.1339C3.1895 17.3529 3.1895 16.0866 3.97055 15.3055L5.55634 13.7197V4.34473ZM8.87288 4.77529C8.5584 4.50572 8.08492 4.54213 7.81535 4.85662C7.54577 5.17111 7.58218 5.64459 7.89667 5.91416L11.3965 8.91416C11.6774 9.15491 12.0918 9.15492 12.3727 8.91418L15.8729 5.91418C16.1874 5.64462 16.2238 5.17115 15.9542 4.85665C15.6847 4.54215 15.2112 4.50571 14.8967 4.77527L11.8847 7.35692L8.87288 4.77529Z" fill="#5F6368"/>
</svg>
