<svg width="24" height="24" viewBox="0 0 24 24" fill="none" xmlns="http://www.w3.org/2000/svg">
<path fill-rule="evenodd" clip-rule="evenodd" d="M2 8.79422C2 7.35068 2.92852 6.0733 4.29531 5.63652L14.1687 2.15766C16.2909 1.47948 18.4557 3.07402 18.4557 5.31537V7.48211C20.4349 7.61325 22 9.27087 22 11.2964C22 13.322 20.4349 14.9796 18.4557 15.1108V16.6986C18.4557 18.94 16.2909 20.5345 14.1687 19.8563L8.32382 17.7969L8.13902 19.3424C7.95768 20.8589 6.67948 22 5.16211 22C3.53856 22 2.20994 20.6992 2.16486 19.0655L2.01108 13.4922C2.00373 13.4022 2 13.3113 2 13.2198V8.79422ZM7.46833 9.07103C7.46833 8.65646 7.06029 8.32039 6.55694 8.32039C6.05359 8.32039 5.64555 8.65646 5.64555 9.07103V13.0744C5.64555 13.489 6.05359 13.8251 6.55694 13.8251C7.06029 13.8251 7.46833 13.489 7.46833 13.0744V9.07103Z" fill="#4EAAFF"/>
</svg>
