<svg width="24" height="24" viewBox="0 0 24 24" fill="none" xmlns="http://www.w3.org/2000/svg">
<path fill-rule="evenodd" clip-rule="evenodd" d="M19.694 17.5737C20.8301 16.0081 21.5 14.0823 21.5 12C21.5 6.75329 17.2467 2.5 12 2.5C6.75329 2.5 2.5 6.75329 2.5 12C2.5 17.2467 6.75329 21.5 12 21.5H20.9765C21.4594 21.5 21.6617 20.8834 21.2728 20.5972L19.0418 18.956L18.7644 18.752C18.7397 18.7339 18.737 18.698 18.7585 18.6762C18.8524 18.5812 18.9443 18.4842 19.0341 18.3853M17.6914 17.6221C17.0315 18.2901 17.1089 19.3963 17.8755 19.9603L17.9295 20H12C7.58172 20 4 16.4183 4 12C4 7.58172 7.58172 4 12 4C16.4183 4 20 7.58172 20 12C20 13.7553 19.4364 15.3746 18.48 16.6926M17.6914 17.6221C17.7706 17.542 17.848 17.4602 17.9238 17.3768C18.0091 17.2829 18.0921 17.187 18.1729 17.0891L18.1738 17.0881L18.1949 17.0623L18.196 17.0611C18.2939 16.9414 18.389 16.818 18.48 16.6926" fill="#202124"/>
<path fill-rule="evenodd" clip-rule="evenodd" d="M12 7.25C12.4142 7.25 12.75 7.58579 12.75 8V11.25H16C16.4142 11.25 16.75 11.5858 16.75 12C16.75 12.4142 16.4142 12.75 16 12.75H12C11.5858 12.75 11.25 12.4142 11.25 12V8C11.25 7.58579 11.5858 7.25 12 7.25Z" fill="black"/>
</svg>
