<svg width="24" height="24" viewBox="0 0 24 24" fill="none" xmlns="http://www.w3.org/2000/svg">
<rect x="7" y="9" width="10" height="8" fill="white"/>
<path fill-rule="evenodd" clip-rule="evenodd" d="M13.1116 2.69637C12.6652 1.76787 11.3348 1.76788 10.8884 2.69637L8.52121 7.61941L3.07256 8.33218C2.0448 8.46663 1.63348 9.72518 2.38571 10.4338L6.3707 14.1879L5.37019 19.55C5.18134 20.5621 6.25785 21.3397 7.16868 20.8491L12 18.2469L16.8313 20.8491C17.7422 21.3397 18.8187 20.5621 18.6298 19.55L17.6293 14.1879L21.6143 10.4338C22.3665 9.72519 21.9552 8.46663 20.9274 8.33218L15.4788 7.61941L13.1116 2.69637ZM8.98736 11.8577C8.69447 11.5648 8.21959 11.5648 7.9267 11.8577C7.63381 12.1506 7.63381 12.6255 7.9267 12.9184L10.2886 15.2803C10.5707 15.5624 11.0242 15.5743 11.3207 15.3075L16.0445 11.056C16.3524 10.7789 16.3774 10.3047 16.1003 9.99681C15.8232 9.68893 15.349 9.66397 15.0411 9.94106L10.8461 13.7165L8.98736 11.8577Z" fill="#FB4516"/>
<path d="M13.3369 2.58804C12.7997 1.47065 11.2003 1.47066 10.6631 2.58804L8.35456 7.38908L3.04013 8.08429C1.80573 8.24577 1.30682 9.76091 2.21428 10.6158L6.0999 14.2763L5.12443 19.5042C4.89634 20.7266 6.19489 21.6576 7.28723 21.0692L12 18.5309L16.7128 21.0692C17.8051 21.6576 19.1037 20.7266 18.8756 19.5042L17.9001 14.2763L21.7857 10.6158C22.6932 9.76092 22.1943 8.24577 20.9599 8.08429L15.6454 7.38908L13.3369 2.58804Z" stroke="white" stroke-width="0.5" stroke-linecap="round" stroke-linejoin="round"/>
</svg>
