<svg width="24" height="24" viewBox="0 0 24 24" fill="none" xmlns="http://www.w3.org/2000/svg">
<path d="M3 6C3 4.34315 4.34315 3 6 3H18C19.6569 3 21 4.34315 21 6V18C21 19.6569 19.6569 21 18 21H6C4.34315 21 3 19.6569 3 18V6Z" fill="#EB5DCC"/>
<path d="M5.60742 14.432V14.552C5.60742 14.792 5.79942 14.984 6.03942 14.984H7.09542V17.774C7.09542 18.014 7.28742 18.206 7.52742 18.206H7.68342C7.91742 18.206 8.11542 18.014 8.11542 17.774V14.984H9.17142C9.41142 14.984 9.60342 14.792 9.60342 14.552V14.432C9.60342 14.192 9.41142 14 9.17142 14H6.03942C5.79942 14 5.60742 14.192 5.60742 14.432Z" fill="white"/>
<path d="M12.6698 16.07L13.8338 14.714C13.9478 14.582 13.9718 14.402 13.8998 14.252C13.8338 14.096 13.6778 14 13.5098 14H13.3177C13.1917 14 13.0718 14.054 12.9938 14.15L11.9978 15.308L11.0078 14.15C10.9237 14.054 10.8038 14 10.6778 14H10.4858C10.3177 14 10.1678 14.096 10.0958 14.252C10.0238 14.402 10.0478 14.588 10.1618 14.714L11.3317 16.07L10.1077 17.492C9.99375 17.618 9.96975 17.798 10.0417 17.954C10.1077 18.11 10.2638 18.206 10.4318 18.206H10.6178C10.7438 18.206 10.8637 18.152 10.9478 18.056L11.9978 16.826L13.0538 18.056C13.1318 18.152 13.2517 18.206 13.3778 18.206H13.5698C13.7378 18.206 13.8877 18.11 13.9598 17.954C14.0318 17.798 14.0078 17.618 13.8938 17.492L12.6698 16.07Z" fill="white"/>
<path d="M14.3965 14.432V14.552C14.3965 14.792 14.5885 14.984 14.8285 14.984H15.8845V17.774C15.8845 18.014 16.0765 18.206 16.3165 18.206H16.4725C16.7065 18.206 16.9045 18.014 16.9045 17.774V14.984H17.9605C18.2005 14.984 18.3925 14.792 18.3925 14.552V14.432C18.3925 14.192 18.2005 14 17.9605 14H14.8285C14.5885 14 14.3965 14.192 14.3965 14.432Z" fill="white"/>
</svg>
