<svg width="24" height="24" viewBox="0 0 24 24" fill="none" xmlns="http://www.w3.org/2000/svg">
<path d="M16.0586 7.22569L16.5123 6.74072C16.9944 6.22541 16.9647 5.42012 16.4461 4.94112L13.6287 2.34071C13.11 1.86171 12.2989 1.89156 11.8168 2.40637L7.68303 6.82429C7.6384 6.87204 7.59815 6.92227 7.56227 6.9745C7.5075 7.05408 7.46293 7.13864 7.42844 7.22569H16.0586Z" fill="#FF75A7"/>
<path fill-rule="evenodd" clip-rule="evenodd" d="M22 11.0492C22 9.50229 20.7372 8.24785 19.1795 8.24785H15.1019L15.1054 8.24437H13.0051L13.0017 8.24785H9.60216L9.59816 8.24437H7.46706L7.46888 8.24785H4.82051C3.26277 8.24785 2 9.50229 2 11.0492V19.1986C2 20.7461 3.26277 22 4.82051 22H19.1795C20.7372 22 22 20.7461 22 19.1986V11.0492ZM9.47809 14.2554C9.18394 13.951 8.69697 13.941 8.39048 14.2335C8.08399 14.5255 8.0741 15.0089 8.36832 15.3134L10.4196 17.4358C10.7113 17.7377 11.1933 17.7501 11.5006 17.4641L15.6031 13.6441C15.9131 13.3556 15.9288 12.8721 15.6383 12.5642C15.3477 12.2563 14.8609 12.2404 14.551 12.5294L11.003 15.8331L9.47809 14.2554Z" fill="#FF75A7"/>
</svg>
