<svg width="32" height="33" viewBox="0 0 32 33" fill="none" xmlns="http://www.w3.org/2000/svg">
<path d="M0.889254 8.57478C1.70247 4.99662 4.49662 2.20247 8.07478 1.38925C13.2917 0.203582 18.7083 0.203582 23.9252 1.38925C27.5034 2.20247 30.2975 4.99662 31.1107 8.57478C32.2964 13.7917 32.2964 19.2083 31.1107 24.4252C30.2975 28.0034 27.5034 30.7975 23.9252 31.6107C18.7083 32.7964 13.2917 32.7964 8.07478 31.6107C4.49662 30.7975 1.70247 28.0034 0.889254 24.4252C-0.296418 19.2083 -0.296418 13.7917 0.889254 8.57478Z" fill="#8582F6"/>
<path d="M13.4422 9.39008C16.4269 9.39008 18.8466 11.9371 18.8466 15.079C18.8466 18.2208 16.4269 20.7678 13.4422 20.7678L7.79461 20.7678C7.54472 20.7678 7.41627 20.4529 7.58837 20.2622L8.84407 18.8705C7.98883 17.8642 7.46883 16.5355 7.46883 15.079C7.46883 11.9371 9.88848 9.39008 12.8733 9.39008H13.4422Z" fill="white"/>
<path d="M14.6896 22.1746C17.9396 21.3908 20.354 18.4641 20.354 14.9734C20.354 13.9469 20.1452 12.9692 19.7678 12.0804C22.6397 12.3499 24.891 14.8895 24.891 17.9827C24.891 19.4999 24.3493 20.8839 23.4585 21.9322L24.7665 23.3819C24.9458 23.5806 24.812 23.9086 24.5517 23.9086L18.6688 23.9086C17.115 23.9086 15.7083 23.246 14.6896 22.1746Z" fill="white"/>
<path d="M12.1959 20.9456C10.7357 20.7639 9.43785 20.0592 8.49573 19.0248L8.54583 18.9692C7.65495 17.921 7.11328 16.5369 7.11328 15.0197C7.11328 11.7469 9.63376 9.09375 12.7429 9.09375H13.3355C14.5847 9.09375 15.7388 9.52201 16.6726 10.2466C17.2773 10.724 17.7882 11.3149 18.1732 11.9871C18.1897 12.0163 18.206 12.0456 18.2221 12.0751C18.2219 12.0751 18.2222 12.0751 18.2221 12.0751C18.6954 12.9348 18.9651 13.9227 18.9651 14.9734C18.9651 18.0126 16.7125 20.5256 13.7859 20.9339C13.7846 20.9317 13.7834 20.9295 13.7822 20.9273C13.6348 20.9394 13.4859 20.9456 13.3355 20.9456L12.4467 20.9456H12.1959Z" fill="white"/>
<path d="M8.56359 20.9456H7.45264C7.19233 20.9456 7.05854 20.6176 7.2378 20.4189L7.56166 20.06C7.86805 20.3842 8.20341 20.6808 8.56359 20.9456Z" fill="white"/>
<path d="M13.3355 9.09375C16.4447 9.09375 18.9651 11.7469 18.9651 15.0197C18.9651 18.2925 16.4447 20.9456 13.3355 20.9456L12.4467 20.9456H7.45264C7.19233 20.9456 7.05854 20.6176 7.2378 20.4189L8.54583 18.9692C7.65495 17.921 7.11328 16.5369 7.11328 15.0197C7.11328 11.7469 9.63376 9.09375 12.7429 9.09375H13.3355Z" fill="white"/>
</svg>
