<svg width="32" height="32" viewBox="0 0 32 32" fill="none" xmlns="http://www.w3.org/2000/svg">
<path d="M28 16C28 18.6303 27.1538 21.0629 25.7187 23.0404C25.582 23.2287 25.4387 23.4147 25.2915 23.5945L25.2598 23.6331L25.7187 23.0404L24.8852 24.0657C24.7717 24.1906 24.6557 24.3131 24.5371 24.4331C24.5099 24.4607 24.5133 24.5059 24.5445 24.5288L24.8949 24.7866L27.713 26.8597C28.2043 27.2211 27.9487 28 27.3388 28H16C9.37258 28 4 22.6274 4 16C4 9.37258 9.37258 4 16 4C22.6274 4 28 9.37258 28 16Z" fill="#FF8E3D"/>
<circle cx="10.6673" cy="16.0013" r="1.33333" fill="white"/>
<circle cx="16.0013" cy="16.0013" r="1.33333" fill="white"/>
<ellipse cx="21.3333" cy="16.0013" rx="1.33333" ry="1.33333" fill="white"/>
</svg>
